<?xml version="1.0" encoding="UTF-8" standalone="no"?>
<!-- Created with Inkscape (http://www.inkscape.org/) -->
<svg id="svg3833" xmlns:rdf="http://www.w3.org/1999/02/22-rdf-syntax-ns#" xmlns="http://www.w3.org/2000/svg" height="24" width="24" version="1.1" xmlns:cc="http://creativecommons.org/ns#" xmlns:dc="http://purl.org/dc/elements/1.1/">
 <metadata id="metadata20">
  <rdf:RDF>
   <cc:Work rdf:about="">
    <dc:format>image/svg+xml</dc:format>
    <dc:type rdf:resource="http://purl.org/dc/dcmitype/StillImage"/>
    <dc:title/>
   </cc:Work>
  </rdf:RDF>
 </metadata>
 <path id="path3920" d="m7.5 5.5-4.5 3.5 4.5 3-4.5 4 9 6 9-6-4.5-4 4.5-3-4.5-3.5-4.5 3.5-4.5-3.5zm0.5 4.5h2 1v1 2h-1v-1.3125c-0.5567 0.435-1 1.142-1 2.312 0 3 3 3 3 3v1s-4 0-4-4c0-1.4826 0.55829-2.4128 1.25-3h-1.25v-1zm4 0s4 0 4 4c0 1.4826-0.55829 2.4128-1.25 3h1.25v1h-2-1v-1-2h1v1.3125c0.557-0.435 1-1.142 1-2.312 0-3-3-3-3-3v-1z" style="opacity:.3;color:#000000"/>
 <path id="path3887" d="m7.5 4.5-4.5 3.5 4.5 3-4.5 4 9 6 9-6-4.5-4 4.5-3-4.5-3.5-4.5 3.5-4.5-3.5zm0.5 4.5h2 1v1 2h-1v-1.3125c-0.5567 0.435-1 1.142-1 2.312 0 3 3 3 3 3v1s-4 0-4-4c0-1.4826 0.55829-2.4128 1.25-3h-1.25v-1zm4 0s4 0 4 4c0 1.4826-0.55829 2.4128-1.25 3h1.25v1h-2-1v-1-2h1v1.3125c0.557-0.435 1-1.142 1-2.312 0-3-3-3-3-3v-1z" style="color:#000000;fill:#dfdbd2"/>
</svg>
