<?xml version="1.0" encoding="UTF-8" standalone="no"?>
<!-- Created with Inkscape (http://www.inkscape.org/) -->
<svg id="svg4744" xmlns:rdf="http://www.w3.org/1999/02/22-rdf-syntax-ns#" xmlns="http://www.w3.org/2000/svg" height="24" width="24" version="1.1" xmlns:cc="http://creativecommons.org/ns#" xmlns:dc="http://purl.org/dc/elements/1.1/">
 <metadata id="metadata18">
  <rdf:RDF>
   <cc:Work rdf:about="">
    <dc:format>image/svg+xml</dc:format>
    <dc:type rdf:resource="http://purl.org/dc/dcmitype/StillImage"/>
    <dc:title/>
   </cc:Work>
  </rdf:RDF>
 </metadata>
 <path id="path3973" d="m7.5 5.5-4.5 3.5 4.5 3-4.5 4 9 6 9-6-4.5-4 4.5-3-4.5-3.5-4.5 3.5-4.5-3.5zm4.5 4.5c0.554 0 1 0.446 1 1v5c0 0.554-0.446 1-1 1s-1-0.446-1-1v-5c0-0.554 0.446-1 1-1zm-0.25 8h0.5c0.4155 0 0.75 0.3345 0.75 0.75v0.5c0 0.416-0.334 0.75-0.75 0.75h-0.5c-0.416 0-0.75-0.334-0.75-0.75v-0.5c0-0.416 0.334-0.75 0.75-0.75z" style="opacity:.3;color:#000000"/>
 <path id="path3967" d="m7.5 4.5-4.5 3.5l4.5 3-4.5 4 9 6 9-6-4.5-4 4.5-3-4.5-3.5-4.5 3.5-4.5-3.5zm4.5 4.5c0.554 0 1 0.446 1 1v5c0 0.554-0.446 1-1 1s-1-0.446-1-1v-5c0-0.554 0.446-1 1-1zm-0.25 8h0.5c0.4155 0 0.75 0.3345 0.75 0.75v0.5c0 0.416-0.334 0.75-0.75 0.75h-0.5c-0.416 0-0.75-0.334-0.75-0.75v-0.5c0-0.416 0.334-0.75 0.75-0.75z" style="color:#000000;fill:#df382c"/>
</svg>
