<?xml version="1.0" encoding="UTF-8" standalone="no"?>
<svg xmlns:dc="http://purl.org/dc/elements/1.1/" xmlns:cc="http://creativecommons.org/ns#" xmlns:rdf="http://www.w3.org/1999/02/22-rdf-syntax-ns#" xmlns:svg="http://www.w3.org/2000/svg" xmlns="http://www.w3.org/2000/svg" version="1.1" id="svg4151" viewBox="0 0 24 24" height="24" width="24">
	<defs id="defs4153" />
	<metadata id="metadata4156">
		<rdf:RDF>
			<cc:Work rdf:about="">
				<dc:format>image/svg+xml</dc:format>
				<dc:type rdf:resource="http://purl.org/dc/dcmitype/StillImage" />
				<dc:title></dc:title>
			</cc:Work>
		</rdf:RDF>
	</metadata>
	<g transform="translate(0,-290.64999)" id="g6994" style="display:inline">
		<path style="fill:#ffffff;stroke-width:1" d="M 8.3066406,3.6152344 3,7.0546875 6.6933594,10.025391 12,6.7148438 8.3066406,3.6152344 Z M 12,6.7148438 16.181641,9.3027344 a 5.5558386,5.5558386 0 0 1 0.52539,-0.029297 5.5558386,5.5558386 0 0 1 1.353516,0.1738281 L 21,7.0546875 15.736328,3.6152344 12,6.7148438 Z M 6.6933594,10.025391 3,12.912109 8.3066406,16.394531 11.228516,13.941406 a 5.5558386,5.5558386 0 0 1 0.248046,-0.96875 L 6.6933594,10.025391 Z m 4.4628906,4.683593 -2.8496094,2.363282 -1.5703125,-1.060547 0,1.189453 5.3066409,3.183594 1.572265,-0.94336 a 5.5558386,5.5558386 0 0 1 -2.464843,-4.613281 5.5558386,5.5558386 0 0 1 0.0059,-0.119141 z" transform="translate(0,290.64999)" id="path6996" />
		<path id="circle6998" transform="translate(0,290.64999)" d="m 16.707031,9.7773438 a 5.0507622,5.0507622 0 0 0 -5.050781,5.0507812 5.0507622,5.0507622 0 0 0 5.050781,5.050781 5.0507622,5.0507622 0 0 0 5.050781,-5.050781 5.0507622,5.0507622 0 0 0 -5.050781,-5.0507812 z m 0.195313,0.8750002 c 0.07362,1.3e-5 0.135193,0.02579 0.185547,0.07617 l 1.300781,1.300781 c 0.0504,0.0504 0.07617,0.11392 0.07617,0.1875 1.3e-5,0.07363 -0.02387,0.135187 -0.07422,0.185547 l -1.302734,1.300781 c -0.05033,0.05033 -0.111894,0.07617 -0.185547,0.07617 -0.07362,-1.3e-5 -0.135187,-0.02578 -0.185547,-0.07617 -0.0504,-0.0504 -0.07624,-0.111987 -0.07617,-0.185547 l 0,-0.802734 c -0.552067,0.02133 -1.022756,0.227854 -1.412109,0.617187 -0.259567,0.259574 -0.43831,0.563456 -0.53711,0.914063 -0.09879,0.350613 -0.106737,0.70412 -0.02148,1.060547 0.01167,0.05427 0.0752,0.2191 0.1875,0.49414 0.02907,0.06007 0.02111,0.11171 -0.02148,0.154297 l -0.578126,0.578125 c -0.0252,0.0252 -0.05695,0.03913 -0.09375,0.03906 -0.03687,-3.4e-5 -0.06666,-0.0139 -0.0918,-0.03906 l -0.02149,-0.01953 c -0.393226,-0.645053 -0.551136,-1.327248 -0.476562,-2.046875 0.07457,-0.719633 0.377456,-1.346206 0.910156,-1.878906 0.28282,-0.282814 0.611501,-0.504256 0.986328,-0.664063 0.374827,-0.159813 0.763102,-0.246186 1.166016,-0.257812 l 0.0039,-0.751954 c -1.3e-5,-0.07362 0.02583,-0.13518 0.07617,-0.185546 0.05033,-0.05033 0.111893,-0.07617 0.185547,-0.07617 z m 2.34375,2.435547 c 0.03687,3.3e-5 0.06862,0.01194 0.09375,0.03711 0.0097,0.0097 0.01564,0.01764 0.01758,0.02344 0.395167,0.643113 0.557015,1.323322 0.484375,2.041015 -0.07264,0.717693 -0.37549,1.342287 -0.90625,1.873047 -0.282813,0.282813 -0.609516,0.504236 -0.980469,0.662109 -0.37096,0.157874 -0.759209,0.24032 -1.164062,0.25 l 0,0.75 c 6e-6,0.07363 -0.02388,0.135187 -0.07422,0.185547 -0.05033,0.05033 -0.113847,0.07617 -0.1875,0.07617 -0.07363,-1.3e-5 -0.135194,-0.02585 -0.185547,-0.07617 L 15.04297,17.609378 c -0.0504,-0.0504 -0.07624,-0.111974 -0.07617,-0.185547 -7e-6,-0.07363 0.02583,-0.13714 0.07617,-0.1875 l 1.300781,-1.300781 c 0.05033,-0.05033 0.111894,-0.07617 0.185547,-0.07617 0.07363,1.3e-5 0.137153,0.02585 0.1875,0.07617 0.0504,0.0504 0.07428,0.111967 0.07422,0.185547 l 0,0.796875 c 0.265386,-0.0097 0.521551,-0.06725 0.765625,-0.171875 0.244073,-0.104607 0.458591,-0.25156 0.646484,-0.439453 0.259573,-0.259574 0.440269,-0.563456 0.539063,-0.914063 0.09879,-0.350613 0.104791,-0.70412 0.01953,-1.060547 -0.01167,-0.05427 -0.07324,-0.2191 -0.185547,-0.49414 -0.02907,-0.06007 -0.02307,-0.111711 0.01953,-0.154297 L 19.154297,13.125 c 0.0252,-0.0252 0.055,-0.03718 0.0918,-0.03711 z" style="fill:#ffffff;stroke:none;stroke-width:1.00157475;stroke-linecap:round;stroke-linejoin:round;stroke-miterlimit:4;stroke-dasharray:none;stroke-opacity:1" />
	</g>
</svg>
