<?xml version="1.0" encoding="UTF-8" standalone="no"?>
<svg xmlns:dc="http://purl.org/dc/elements/1.1/" xmlns:cc="http://creativecommons.org/ns#" xmlns:rdf="http://www.w3.org/1999/02/22-rdf-syntax-ns#" xmlns:svg="http://www.w3.org/2000/svg" xmlns="http://www.w3.org/2000/svg" version="1.1" id="svg4151" viewBox="0 0 22 22" height="22" width="22">
	<defs id="defs4153" />
	<metadata id="metadata4156">
		<rdf:RDF>
			<cc:Work rdf:about="">
				<dc:format>image/svg+xml</dc:format>
				<dc:type rdf:resource="http://purl.org/dc/dcmitype/StillImage" />
				<dc:title></dc:title>
			</cc:Work>
		</rdf:RDF>
	</metadata>
	<g style="display:inline" transform="translate(0,-292.64999)" id="layer1">
		<g style="stroke-width:1.0869565" transform="matrix(0.92,0,0,0.92,0.19366254,25.563873)" id="g7257">
			<path id="path6996" d="m 7.7724931,293.9652 -5.3066406,3.43945 3.6933594,2.97071 5.3066401,-3.31055 -3.6933589,-3.09961 z m 3.6933589,3.09961 4.181641,2.58789 a 5.5558386,5.5558386 0 0 1 0.52539,-0.0293 5.5558386,5.5558386 0 0 1 1.353516,0.17383 l 2.939453,-2.39258 -5.263672,-3.43945 -3.736328,3.09961 z m -5.3066401,3.31055 -3.6933594,2.88671 5.3066406,3.48243 2.9218749,-2.45313 a 5.5558386,5.5558386 0 0 1 0.248046,-0.96875 l -4.7832021,-2.94726 z m 4.4628901,4.68359 -2.8496089,2.36328 -1.5703125,-1.06055 0,1.18946 5.3066404,3.18359 1.572265,-0.94336 a 5.5558386,5.5558386 0 0 1 -2.464843,-4.61328 5.5558386,5.5558386 0 0 1 0.0059,-0.11914 z" style="display:inline;fill:#ffffff;stroke-width:1.0869565" />
			<path style="display:inline;fill:#ffffff;stroke:none;stroke-width:1.08866823;stroke-linecap:round;stroke-linejoin:round;stroke-miterlimit:4;stroke-dasharray:none;stroke-opacity:1" d="m 16.172883,300.12731 a 5.0507622,5.0507622 0 0 0 -5.050781,5.05078 5.0507622,5.0507622 0 0 0 5.050781,5.05078 5.0507622,5.0507622 0 0 0 5.050781,-5.05078 5.0507622,5.0507622 0 0 0 -5.050781,-5.05078 z m 0.195313,0.875 c 0.07362,10e-6 0.135193,0.0258 0.185547,0.0762 l 1.300781,1.30078 c 0.0504,0.0504 0.07617,0.11392 0.07617,0.1875 1.3e-5,0.0736 -0.02387,0.13519 -0.07422,0.18555 l -1.302734,1.30078 c -0.05033,0.0503 -0.111894,0.0762 -0.185547,0.0762 -0.07362,-1e-5 -0.135187,-0.0258 -0.185547,-0.0762 -0.0504,-0.0504 -0.07624,-0.11199 -0.07617,-0.18555 l 0,-0.80273 c -0.552067,0.0213 -1.022756,0.22785 -1.412109,0.61718 -0.259567,0.25958 -0.43831,0.56346 -0.53711,0.91407 -0.09879,0.35061 -0.106737,0.70412 -0.02148,1.06054 0.01167,0.0543 0.0752,0.2191 0.1875,0.49414 0.02907,0.0601 0.02111,0.11171 -0.02148,0.1543 l -0.578126,0.57813 c -0.0252,0.0252 -0.05695,0.0391 -0.09375,0.0391 -0.03687,-4e-5 -0.06666,-0.0139 -0.0918,-0.0391 l -0.02149,-0.0195 c -0.393226,-0.64506 -0.551136,-1.32725 -0.476562,-2.04688 0.07457,-0.71963 0.377456,-1.3462 0.910156,-1.8789 0.28282,-0.28282 0.611501,-0.50426 0.986328,-0.66407 0.374827,-0.15981 0.763102,-0.24618 1.166016,-0.25781 l 0.0039,-0.75195 c -1.3e-5,-0.0736 0.02583,-0.13518 0.07617,-0.18555 0.05033,-0.0503 0.111893,-0.0762 0.185547,-0.0762 z m 2.34375,2.43555 c 0.03687,3e-5 0.06862,0.0119 0.09375,0.0371 0.0097,0.01 0.01564,0.0176 0.01758,0.0234 0.395167,0.64311 0.557015,1.32332 0.484375,2.04101 -0.07264,0.7177 -0.37549,1.34229 -0.90625,1.87305 -0.282813,0.28281 -0.609516,0.50423 -0.980469,0.66211 -0.37096,0.15787 -0.759209,0.24032 -1.164062,0.25 l 0,0.75 c 6e-6,0.0736 -0.02388,0.13519 -0.07422,0.18554 -0.05033,0.0503 -0.113847,0.0762 -0.1875,0.0762 -0.07363,-2e-5 -0.135194,-0.0259 -0.185547,-0.0762 l -1.300781,-1.30078 c -0.0504,-0.0504 -0.07624,-0.11197 -0.07617,-0.18554 -7e-6,-0.0736 0.02583,-0.13714 0.07617,-0.1875 l 1.300781,-1.30078 c 0.05033,-0.0503 0.111894,-0.0762 0.185547,-0.0762 0.07363,10e-6 0.137153,0.0258 0.1875,0.0762 0.0504,0.0504 0.07428,0.11196 0.07422,0.18554 l 0,0.79688 c 0.265386,-0.01 0.521551,-0.0673 0.765625,-0.17188 0.244073,-0.1046 0.458591,-0.25156 0.646484,-0.43945 0.259573,-0.25957 0.440269,-0.56346 0.539063,-0.91406 0.09879,-0.35062 0.104791,-0.70412 0.01953,-1.06055 -0.01167,-0.0543 -0.07324,-0.2191 -0.185547,-0.49414 -0.02907,-0.0601 -0.02307,-0.11171 0.01953,-0.1543 l 0.558594,-0.55859 c 0.0252,-0.0252 0.055,-0.0372 0.0918,-0.0371 z" id="circle6998" />
		</g>
	</g>
</svg>
