<?xml version="1.0" encoding="UTF-8" standalone="no"?>
<!-- Created with Inkscape (http://www.inkscape.org/) -->
<svg id="svg3833" xmlns:rdf="http://www.w3.org/1999/02/22-rdf-syntax-ns#" xmlns="http://www.w3.org/2000/svg" height="22" width="22" version="1.1" xmlns:cc="http://creativecommons.org/ns#" xmlns:dc="http://purl.org/dc/elements/1.1/">
 <metadata id="metadata13">
  <rdf:RDF>
   <cc:Work rdf:about="">
    <dc:format>image/svg+xml</dc:format>
    <dc:type rdf:resource="http://purl.org/dc/dcmitype/StillImage"/>
    <dc:title/>
   </cc:Work>
  </rdf:RDF>
 </metadata>
 <path id="path2835-6" d="m6.5 4.5-4.5 3.5 4.5 3-4.5 4 9 6 9-6-4.5-4 4.5-3-4.5-3.5-4.5 3.5-4.5-3.5zm4.5 4.5c1.4826 0 2.4128 0.55829 3 1.25v-1.25h1v2 1h-1-2v-1h1.3125c-0.435-0.557-1.142-1-2.312-1-3 0-3 3-3 3h-1s0-4 4-4zm3 4h1s0 4-4 4c-1.4826 0-2.4128-0.55829-3-1.25v1.25h-1v-2-1h1 2v1h-1.3125c0.43535 0.55672 1.1425 1 2.3125 1 3 0 3-3 3-3z" style="opacity:.3;color:#000000"/>
 <path id="path2835" d="m6.5 3.5-4.5 3.5 4.5 3-4.5 4 9 6 9-6-4.5-4 4.5-3-4.5-3.5-4.5 3.5-4.5-3.5zm4.5 4.5c1.4826 0 2.4128 0.55829 3 1.25v-1.25h1v2 1h-1-2v-1h1.3125c-0.435-0.5567-1.142-1-2.312-1-3 0-3 3-3 3h-1s0-4 4-4zm3 4h1s0 4-4 4c-1.4826 0-2.4128-0.55829-3-1.25v1.25h-1v-2-1h1 2v1h-1.3125c0.43535 0.55672 1.1425 1 2.3125 1 3 0 3-3 3-3z" style="color:#000000;fill:#dfdbd2"/>
</svg>
