<?xml version="1.0" encoding="UTF-8" standalone="no"?>
<svg
   xmlns:dc="http://purl.org/dc/elements/1.1/"
   xmlns:cc="http://creativecommons.org/ns#"
   xmlns:rdf="http://www.w3.org/1999/02/22-rdf-syntax-ns#"
   xmlns:svg="http://www.w3.org/2000/svg"
   xmlns="http://www.w3.org/2000/svg"
   version="1.1"
   id="svg4151"
   viewBox="0 0 22 22"
   height="22"
   width="22">
  <defs
     id="defs4153" />
  <metadata
     id="metadata4156">
    <rdf:RDF>
      <cc:Work
         rdf:about="">
        <dc:format>image/svg+xml</dc:format>
        <dc:type
           rdf:resource="http://purl.org/dc/dcmitype/StillImage" />
        <dc:title></dc:title>
      </cc:Work>
    </rdf:RDF>
  </metadata>
  <g
     style="display:none"
     transform="translate(0,-292.64999)"
     id="layer1">
    <g
       style="stroke-width:1.0869565"
       transform="matrix(0.92,0,0,0.92,0.19366254,25.563873)"
       id="g7257">
      <path
         id="path6996"
         d="m 7.7724931,293.9652 -5.3066406,3.43945 3.6933594,2.97071 5.3066401,-3.31055 -3.6933589,-3.09961 z m 3.6933589,3.09961 4.181641,2.58789 a 5.5558386,5.5558386 0 0 1 0.52539,-0.0293 5.5558386,5.5558386 0 0 1 1.353516,0.17383 l 2.939453,-2.39258 -5.263672,-3.43945 -3.736328,3.09961 z m -5.3066401,3.31055 -3.6933594,2.88671 5.3066406,3.48243 2.9218749,-2.45313 a 5.5558386,5.5558386 0 0 1 0.248046,-0.96875 l -4.7832021,-2.94726 z m 4.4628901,4.68359 -2.8496089,2.36328 -1.5703125,-1.06055 0,1.18946 5.3066404,3.18359 1.572265,-0.94336 a 5.5558386,5.5558386 0 0 1 -2.464843,-4.61328 5.5558386,5.5558386 0 0 1 0.0059,-0.11914 z"
         style="display:inline;fill:#ffffff;stroke-width:1.0869565" />
      <path
         style="display:inline;fill:#ffffff;stroke:none;stroke-width:1.08866823;stroke-linecap:round;stroke-linejoin:round;stroke-miterlimit:4;stroke-dasharray:none;stroke-opacity:1"
         d="m 16.172883,300.12731 a 5.0507622,5.0507622 0 0 0 -5.050781,5.05078 5.0507622,5.0507622 0 0 0 5.050781,5.05078 5.0507622,5.0507622 0 0 0 5.050781,-5.05078 5.0507622,5.0507622 0 0 0 -5.050781,-5.05078 z m 0.195313,0.875 c 0.07362,10e-6 0.135193,0.0258 0.185547,0.0762 l 1.300781,1.30078 c 0.0504,0.0504 0.07617,0.11392 0.07617,0.1875 1.3e-5,0.0736 -0.02387,0.13519 -0.07422,0.18555 l -1.302734,1.30078 c -0.05033,0.0503 -0.111894,0.0762 -0.185547,0.0762 -0.07362,-1e-5 -0.135187,-0.0258 -0.185547,-0.0762 -0.0504,-0.0504 -0.07624,-0.11199 -0.07617,-0.18555 l 0,-0.80273 c -0.552067,0.0213 -1.022756,0.22785 -1.412109,0.61718 -0.259567,0.25958 -0.43831,0.56346 -0.53711,0.91407 -0.09879,0.35061 -0.106737,0.70412 -0.02148,1.06054 0.01167,0.0543 0.0752,0.2191 0.1875,0.49414 0.02907,0.0601 0.02111,0.11171 -0.02148,0.1543 l -0.578126,0.57813 c -0.0252,0.0252 -0.05695,0.0391 -0.09375,0.0391 -0.03687,-4e-5 -0.06666,-0.0139 -0.0918,-0.0391 l -0.02149,-0.0195 c -0.393226,-0.64506 -0.551136,-1.32725 -0.476562,-2.04688 0.07457,-0.71963 0.377456,-1.3462 0.910156,-1.8789 0.28282,-0.28282 0.611501,-0.50426 0.986328,-0.66407 0.374827,-0.15981 0.763102,-0.24618 1.166016,-0.25781 l 0.0039,-0.75195 c -1.3e-5,-0.0736 0.02583,-0.13518 0.07617,-0.18555 0.05033,-0.0503 0.111893,-0.0762 0.185547,-0.0762 z m 2.34375,2.43555 c 0.03687,3e-5 0.06862,0.0119 0.09375,0.0371 0.0097,0.01 0.01564,0.0176 0.01758,0.0234 0.395167,0.64311 0.557015,1.32332 0.484375,2.04101 -0.07264,0.7177 -0.37549,1.34229 -0.90625,1.87305 -0.282813,0.28281 -0.609516,0.50423 -0.980469,0.66211 -0.37096,0.15787 -0.759209,0.24032 -1.164062,0.25 l 0,0.75 c 6e-6,0.0736 -0.02388,0.13519 -0.07422,0.18554 -0.05033,0.0503 -0.113847,0.0762 -0.1875,0.0762 -0.07363,-2e-5 -0.135194,-0.0259 -0.185547,-0.0762 l -1.300781,-1.30078 c -0.0504,-0.0504 -0.07624,-0.11197 -0.07617,-0.18554 -7e-6,-0.0736 0.02583,-0.13714 0.07617,-0.1875 l 1.300781,-1.30078 c 0.05033,-0.0503 0.111894,-0.0762 0.185547,-0.0762 0.07363,10e-6 0.137153,0.0258 0.1875,0.0762 0.0504,0.0504 0.07428,0.11196 0.07422,0.18554 l 0,0.79688 c 0.265386,-0.01 0.521551,-0.0673 0.765625,-0.17188 0.244073,-0.1046 0.458591,-0.25156 0.646484,-0.43945 0.259573,-0.25957 0.440269,-0.56346 0.539063,-0.91406 0.09879,-0.35062 0.104791,-0.70412 0.01953,-1.06055 -0.01167,-0.0543 -0.07324,-0.2191 -0.185547,-0.49414 -0.02907,-0.0601 -0.02307,-0.11171 0.01953,-0.1543 l 0.558594,-0.55859 c 0.0252,-0.0252 0.055,-0.0372 0.0918,-0.0371 z"
         id="circle6998" />
    </g>
  </g>
  <g
     style="display:none"
     id="layer2">
    <g
       style="stroke-width:1.0869565"
       transform="matrix(0.92,0,0,0.92,0.19366254,2.1518787)"
       id="g7261">
      <path
         style="display:inline;fill:#ffffff;stroke-width:1.0869565"
         d="M 7.7724931,1.3152054 2.4658525,4.7546585 6.1592119,7.725362 11.465852,4.4148148 7.7724931,1.3152054 Z m 3.6933589,3.0996094 4.181641,2.5878906 a 5.5558386,5.5558386 0 0 1 0.52539,-0.029297 5.5558386,5.5558386 0 0 1 1.353516,0.1738281 L 20.465852,4.7546585 15.20218,1.3152054 11.465852,4.4148148 Z M 6.1592119,7.725362 2.4658525,10.61208 7.7724931,14.094502 10.694368,11.641377 a 5.5558386,5.5558386 0 0 1 0.248046,-0.96875 L 6.1592119,7.725362 Z m 4.4628901,4.683593 -2.8496089,2.363282 -1.5703125,-1.060547 0,1.189453 5.3066404,3.183594 1.572265,-0.94336 a 5.5558386,5.5558386 0 0 1 -2.464843,-4.613281 5.5558386,5.5558386 0 0 1 0.0059,-0.119141 z"
         id="path5258" />
      <path
         style="display:inline;fill:#ffffff;stroke:none;stroke-width:1.08866823;stroke-linecap:round;stroke-linejoin:round;stroke-miterlimit:4;stroke-dasharray:none;stroke-opacity:1"
         d="m 16.172883,7.4773148 a 5.0507622,5.0507622 0 0 0 -5.050781,5.0507812 5.0507622,5.0507622 0 0 0 5.050781,5.050781 5.0507622,5.0507622 0 0 0 5.050781,-5.050781 5.0507622,5.0507622 0 0 0 -5.050781,-5.0507812 z M 15.993196,9.373799 c 0.175246,-0.01059 0.353296,-0.0069 0.533203,0.01172 0.719634,0.07457 1.344254,0.379409 1.876953,0.912109 0.282814,0.28282 0.504256,0.611502 0.664062,0.986328 0.15981,0.374827 0.246187,0.763103 0.257813,1.166016 l 0.751953,0.0039 c 0.07362,-1.3e-5 0.137133,0.02387 0.1875,0.07422 0.05036,0.05033 0.07423,0.113847 0.07422,0.1875 -1.5e-5,0.07362 -0.02386,0.135194 -0.07422,0.185547 l -1.302734,1.300781 c -0.05037,0.0504 -0.111941,0.07617 -0.185547,0.07617 -0.07362,1.3e-5 -0.135186,-0.02583 -0.185547,-0.07617 l -1.302734,-1.300781 c -0.05036,-0.05033 -0.07618,-0.113847 -0.07617,-0.1875 1.4e-5,-0.07362 0.02581,-0.135187 0.07617,-0.185547 0.05037,-0.0504 0.111954,-0.07428 0.185546,-0.07422 l 0.802735,0 c -0.02131,-0.552066 -0.22588,-1.022756 -0.615235,-1.412109 -0.25957,-0.259567 -0.565405,-0.440263 -0.916015,-0.539063 -0.350615,-0.09879 -0.704122,-0.104784 -1.060547,-0.01953 -0.05426,0.01167 -0.219097,0.07325 -0.494141,0.185547 -0.06004,0.02907 -0.111678,0.02307 -0.154297,-0.01953 L 14.45804,10.071062 c -0.02518,-0.0252 -0.03714,-0.05695 -0.03711,-0.09375 3.3e-5,-0.03687 0.01193,-0.06666 0.03711,-0.0918 l 0.02148,-0.02149 c 0.483787,-0.294919 0.987934,-0.458451 1.513672,-0.490234 z m -2.423828,1.40625 c 0.07362,-7e-6 0.135186,0.02388 0.185546,0.07422 l 1.302735,1.302734 c 0.05036,0.05033 0.07423,0.111894 0.07422,0.185547 -10e-6,0.07363 -0.02387,0.1352 -0.07422,0.185547 -0.05037,0.0504 -0.113899,0.07624 -0.1875,0.07617 l -0.794922,0 c 0.0097,0.265387 0.06727,0.519598 0.171875,0.763672 0.104603,0.244073 0.249602,0.460544 0.4375,0.648437 0.25957,0.259574 0.565406,0.438316 0.916016,0.53711 0.350614,0.09879 0.704122,0.106744 1.060546,0.02148 0.05426,-0.01167 0.219098,-0.07519 0.494141,-0.1875 0.06004,-0.02907 0.111678,-0.02112 0.154297,0.02148 l 0.556641,0.556641 c 0.02518,0.0252 0.03909,0.05695 0.03906,0.09375 -3.3e-5,0.03687 -0.01389,0.06862 -0.03906,0.09375 -0.0097,0.0097 -0.01764,0.01564 -0.02344,0.01758 -0.643113,0.395167 -1.323319,0.555062 -2.041015,0.482422 -0.717692,-0.07264 -1.342285,-0.373537 -1.873047,-0.904297 -0.282816,-0.282813 -0.502287,-0.609515 -0.660157,-0.980469 -0.15787,-0.37096 -0.242268,-0.759209 -0.251953,-1.164062 l -0.75,0 c -0.07362,7e-6 -0.135185,-0.02583 -0.185547,-0.07617 -0.05036,-0.05033 -0.07422,-0.111894 -0.07422,-0.185547 10e-6,-0.07363 0.02386,-0.135193 0.07422,-0.185547 l 1.302735,-1.302734 c 0.05037,-0.0504 0.111945,-0.07429 0.185547,-0.07422 z"
         id="circle5274" />
    </g>
  </g>
  <g
     style="display:none"
     id="layer3">
    <g
       style="stroke-width:1.0869565"
       transform="matrix(0.92,0,0,0.92,0.19366254,2.1518787)"
       id="g7265">
      <path
         id="path7011"
         d="M 7.7724931,1.3152054 2.4658525,4.7546585 6.1592119,7.725362 11.465852,4.4148148 7.7724931,1.3152054 Z m 3.6933589,3.0996094 4.181641,2.5878906 a 5.5558386,5.5558386 0 0 1 0.52539,-0.029297 5.5558386,5.5558386 0 0 1 1.353516,0.1738281 L 20.465852,4.7546585 15.20218,1.3152054 11.465852,4.4148148 Z M 6.1592119,7.725362 2.4658525,10.61208 7.7724931,14.094502 10.694368,11.641377 a 5.5558386,5.5558386 0 0 1 0.248046,-0.96875 L 6.1592119,7.725362 Z m 4.4628901,4.683593 -2.8496089,2.363282 -1.5703125,-1.060547 0,1.189453 5.3066404,3.183594 1.572265,-0.94336 a 5.5558386,5.5558386 0 0 1 -2.464843,-4.613281 5.5558386,5.5558386 0 0 1 0.0059,-0.119141 z"
         style="display:inline;fill:#ffffff;stroke-width:1.0869565" />
      <path
         style="display:inline;fill:#ffffff;stroke:none;stroke-width:1.08866823;stroke-linecap:round;stroke-linejoin:round;stroke-miterlimit:4;stroke-dasharray:none;stroke-opacity:1"
         d="m 16.172883,7.4773148 c -2.789474,-1.05e-5 -5.050791,2.2613072 -5.050781,5.0507812 -10e-6,2.789474 2.261307,5.050791 5.050781,5.050781 2.789474,1e-5 5.050791,-2.261307 5.050781,-5.050781 10e-6,-2.789474 -2.261307,-5.0507917 -5.050781,-5.0507812 z m -0.570312,2.5449222 1.140625,0 c 0.06171,0 0.114302,0.02323 0.158203,0.06836 0.04391,0.04513 0.06487,0.0985 0.0625,0.160156 l -0.09961,2.732422 c -0.0024,0.06173 -0.02797,0.11509 -0.07422,0.160156 -0.04627,0.04507 -0.100402,0.06836 -0.16211,0.06836 l -0.910156,0 c -0.06171,0 -0.115834,-0.02329 -0.162109,-0.06836 -0.04627,-0.04513 -0.07184,-0.09849 -0.07422,-0.160156 l -0.09961,-2.732422 c -0.0024,-0.06173 0.01857,-0.115103 0.0625,-0.160156 0.04391,-0.04513 0.0965,-0.06836 0.158203,-0.06836 z m 0.115234,3.759765 0.910156,0 c 0.0617,0 0.115062,0.02134 0.160157,0.06641 0.04509,0.04513 0.06836,0.0985 0.06836,0.160156 l 0,0.798828 c 0,0.06173 -0.02327,0.115089 -0.06836,0.160156 -0.04509,0.04507 -0.09845,0.06641 -0.160157,0.06641 l -0.910156,0 c -0.0617,0 -0.115061,-0.02134 -0.160156,-0.06641 -0.04509,-0.04513 -0.06836,-0.09849 -0.06836,-0.160156 l 0,-0.798828 c 0,-0.06173 0.02327,-0.115096 0.06836,-0.160156 0.04509,-0.04507 0.09846,-0.06641 0.160156,-0.06641 z"
         id="path7013" />
    </g>
  </g>
  <g
     style="display:inline"
     id="layer4">
    <path
       style="display:inline;opacity:1;fill:#ffffff;stroke-width:1"
       d="M 7.3443226,3.3618677 2.4622469,6.5254717 5.8601713,9.2594265 10.742246,6.2130121 7.3443226,3.3618677 Z M 2.4622469,11.915272 7.3443226,15.117904 10.742246,12.266786 5.8601713,9.2594265 2.4622469,11.915272 Z m 8.2799991,0.351514 3.436981,2.851118 4.84302,-3.163578 -3.358868,-2.6948995 -4.921133,3.0073595 z m 8.280001,-5.7413143 -4.84302,-3.163604 -3.436981,2.8511444 4.921133,3.0464144 3.358868,-2.7339548 z m -8.240945,6.3662163 -3.4369794,2.851135 -1.4450944,-0.976424 0,1.093577 4.8820738,2.929252 4.882077,-2.929252 0,-1.093577 -1.484151,0.976424 -3.397926,-2.851135 z"
       id="path7007" />
  </g>
  <g
     style="display:none"
     id="layer5">
    <path
       id="path4143"
       d="M 7.3443226,3.3618677 2.4622469,6.5254717 5.8601713,9.2594265 10.742246,6.2130121 7.3443226,3.3618677 Z M 2.4622469,11.915272 7.3443226,15.117904 10.742246,12.266786 5.8601713,9.2594265 2.4622469,11.915272 Z m 8.2799991,0.351514 3.436981,2.851118 4.84302,-3.163578 -3.358868,-2.6948995 -4.921133,3.0073595 z m 8.280001,-5.7413143 -4.84302,-3.163604 -3.436981,2.8511444 4.921133,3.0464144 3.358868,-2.7339548 z m -8.240945,6.3662163 -3.4369794,2.851135 -1.4450944,-0.976424 0,1.093577 4.8820738,2.929252 4.882077,-2.929252 0,-1.093577 -1.484151,0.976424 -3.397926,-2.851135 z"
       style="display:inline;opacity:1;fill:#ffffff;stroke-width:1" />
  </g>
</svg>
